<svg width="397" height="48" viewBox="0 0 397 48" fill="none" xmlns="http://www.w3.org/2000/svg">
<path d="M100.05 22.1C103.95 22.1 107.79 24.89 107.79 30.2C107.79 35.51 103.95 38.3 100.05 38.3C97.11 38.3 94.71 36.68 93.81 34.67H93.72V38H91.89V16.7H93.72V25.73H93.81C94.71 23.72 97.11 22.1 100.05 22.1ZM99.81 36.62C102.87 36.62 105.93 34.52 105.93 30.2C105.93 25.88 102.87 23.78 99.81 23.78C96.75 23.78 93.66 25.91 93.66 30.2C93.66 34.49 96.75 36.62 99.81 36.62ZM121.645 22.4H123.565L116.905 38L114.385 43.7H112.585L115.165 37.88L108.565 22.4H110.485L116.065 35.66L121.645 22.4Z" fill="black" fill-opacity="0.65"/>
<path d="M146.797 16.8C151.637 16.8 156.797 20.4 156.797 27.6C156.797 34.8 151.637 38.4 146.797 38.4C143.077 38.4 140.677 36.36 140.157 35.2H140.037V45.6H134.677V17.2H140.037V20H140.157C140.677 18.84 143.077 16.8 146.797 16.8ZM145.717 33.6C148.677 33.6 151.477 31.48 151.477 27.6C151.477 23.72 148.677 21.6 145.717 21.6C142.677 21.6 139.917 23.68 139.917 27.6C139.917 31.52 142.677 33.6 145.717 33.6ZM168.872 38.4C164.032 38.4 158.872 34.8 158.872 27.6C158.872 20.4 164.032 16.8 168.872 16.8C172.592 16.8 174.992 18.84 175.512 20H175.632V17.2H180.992V38H175.632V35.2H175.512C174.992 36.36 172.592 38.4 168.872 38.4ZM169.952 33.6C172.952 33.6 175.752 31.52 175.752 27.6C175.752 23.68 172.952 21.6 169.952 21.6C166.952 21.6 164.152 23.72 164.152 27.6C164.152 31.48 166.952 33.6 169.952 33.6ZM196.947 16.8C197.427 16.8 197.867 16.84 198.347 16.96V22.08C197.867 22 197.467 21.96 196.987 21.96C192.947 21.96 190.427 24.76 190.427 28.92V38H185.067V17.2H190.427V22.6C191.147 19.4 193.187 16.8 196.947 16.8ZM201.395 38V9.6H206.755V38H201.395ZM219.849 38.4C215.009 38.4 209.849 34.8 209.849 27.6C209.849 20.4 215.009 16.8 219.849 16.8C223.569 16.8 225.969 18.84 226.489 20H226.609V17.2H231.969V38H226.609V35.2H226.489C225.969 36.36 223.569 38.4 219.849 38.4ZM220.929 33.6C223.929 33.6 226.729 31.52 226.729 27.6C226.729 23.68 223.929 21.6 220.929 21.6C217.929 21.6 215.129 23.72 215.129 27.6C215.129 31.48 217.929 33.6 220.929 33.6ZM260.324 16.8C264.724 16.8 267.924 19.56 267.924 25.92V38H262.524V26.16C262.524 23.2 261.004 21.6 258.684 21.6C256.324 21.6 254.644 23.2 254.644 26.16V38H249.284V26.16C249.284 23.2 247.724 21.6 245.444 21.6C243.084 21.6 241.404 23.2 241.404 26.16V38H236.044V17.2H241.404V19.88C242.524 18.12 244.444 16.8 247.364 16.8C249.924 16.8 252.164 17.88 253.444 20.28C254.644 18.36 256.924 16.8 260.324 16.8ZM281.501 16.8C286.781 16.8 292.781 20.52 291.621 29.68H276.061C276.821 32.52 279.301 34 282.421 34C284.461 34 286.261 33.44 287.781 32.12L290.221 34.72C288.501 36.88 285.501 38.4 281.821 38.4C276.101 38.4 270.981 34.52 270.981 27.6C270.981 20.6 276.181 16.8 281.501 16.8ZM281.541 21.32C279.061 21.32 276.661 22.76 275.981 25.76H286.861C286.541 22.8 284.061 21.32 281.541 21.32ZM306.553 16.8C310.833 16.8 314.433 19.44 314.433 25.76V38H309.073V26.64C309.073 23.6 307.433 21.6 304.633 21.6C301.873 21.6 300.193 23.6 300.193 26.64V38H294.833V17.2H300.193V20.04C301.353 18.2 303.433 16.8 306.553 16.8ZM327.639 33.48C328.119 33.48 328.839 33.4 329.599 33.16V37.28C328.799 38 327.279 38.24 325.959 38.24C322.439 38.24 319.879 36.52 319.879 32.24V21.48H316.919V17.2H319.879V11.88H325.279V17.2H329.559V21.48H325.279V31.36C325.279 32.44 325.879 33.48 327.639 33.48ZM342.605 38.4C337.165 38.4 331.645 34.64 331.645 27.6C331.645 20.56 337.165 16.8 342.605 16.8C348.005 16.8 353.565 20.56 353.565 27.6C353.565 34.64 348.005 38.4 342.605 38.4ZM342.605 33.56C345.605 33.56 348.245 31.32 348.245 27.6C348.245 23.88 345.605 21.64 342.605 21.64C339.605 21.64 336.925 23.88 336.925 27.6C336.925 31.32 339.605 33.56 342.605 33.56ZM357.779 38.4C356.099 38.4 354.699 37.16 354.699 35.32C354.699 33.48 356.099 32.24 357.779 32.24C359.419 32.24 360.859 33.48 360.859 35.32C360.859 37.16 359.419 38.4 357.779 38.4ZM373.169 38.4C368.329 38.4 363.169 34.8 363.169 27.6C363.169 20.4 368.329 16.8 373.169 16.8C376.889 16.8 379.289 18.84 379.809 20H379.929V17.2H385.289V38H379.929V35.2H379.809C379.289 36.36 376.889 38.4 373.169 38.4ZM374.249 33.6C377.249 33.6 380.049 31.52 380.049 27.6C380.049 23.68 377.249 21.6 374.249 21.6C371.249 21.6 368.449 23.72 368.449 27.6C368.449 31.48 371.249 33.6 374.249 33.6ZM389.364 14.32V9.6H394.724V14.32H389.364ZM389.364 38V17.2H394.724V38H389.364Z" fill="black"/>
<rect y="2" width="82" height="44" rx="10" fill="#B9F8CF"/>
<rect x="1" y="3" width="80" height="42" rx="9" stroke="#0E542C" stroke-opacity="0.75" stroke-width="2"/>
<path d="M24.76 9.6H30.16V38H24.8V35.2H24.68C24.16 36.36 21.76 38.4 18.04 38.4C13.2 38.4 8.04 34.8 8.04 27.6C8.04 20.4 13.2 16.8 18.04 16.8C21.76 16.8 24.16 18.84 24.68 20H24.76V9.6ZM19.12 33.6C22.12 33.6 24.92 31.52 24.92 27.6C24.92 23.68 22.12 21.6 19.12 21.6C16.12 21.6 13.32 23.72 13.32 27.6C13.32 31.48 16.12 33.6 19.12 33.6ZM34.2353 14.32V9.6H39.5953V14.32H34.2353ZM34.2353 38V17.2H39.5953V38H34.2353ZM66.4484 13.28C64.4084 13.28 63.4484 14.4 63.4484 16.44V17.2H68.8084V21.48H63.4484V38H58.0484V21.48H50.2884V38H44.9284V21.48H42.2884V17.2H44.9284V15.84C44.9284 9.72 49.1684 8.72 51.9284 8.72C53.0084 8.72 54.4884 8.84 55.6484 9.52V13.72C54.6484 13.24 53.6884 13.28 53.3284 13.28C51.2884 13.28 50.2884 14.4 50.2884 16.44V17.2H58.0484V15.84C58.0484 9.72 62.2884 8.72 65.0484 8.72C66.1284 8.72 67.6484 8.84 68.8084 9.52V13.72C67.7684 13.24 66.8084 13.28 66.4484 13.28Z" fill="#0E542C"/>
</svg>
