<svg width="273" height="155" viewBox="0 0 273 155" fill="none" xmlns="http://www.w3.org/2000/svg">
<path d="M22.7108 123.8C27.5508 123.8 32.7108 127.4 32.7108 134.6C32.7108 141.8 27.5508 145.4 22.7108 145.4C18.9908 145.4 16.5908 143.36 16.0708 142.2H15.9508V152.6H10.5908V124.2H15.9508V127H16.0708C16.5908 125.84 18.9908 123.8 22.7108 123.8ZM21.6308 140.6C24.5908 140.6 27.3908 138.48 27.3908 134.6C27.3908 130.72 24.5908 128.6 21.6308 128.6C18.5908 128.6 15.8308 130.68 15.8308 134.6C15.8308 138.52 18.5908 140.6 21.6308 140.6ZM44.7861 145.4C39.9461 145.4 34.7861 141.8 34.7861 134.6C34.7861 127.4 39.9461 123.8 44.7861 123.8C48.5061 123.8 50.9061 125.84 51.4261 127H51.5461V124.2H56.9061V145H51.5461V142.2H51.4261C50.9061 143.36 48.5061 145.4 44.7861 145.4ZM45.8661 140.6C48.8661 140.6 51.6661 138.52 51.6661 134.6C51.6661 130.68 48.8661 128.6 45.8661 128.6C42.8661 128.6 40.0661 130.72 40.0661 134.6C40.0661 138.48 42.8661 140.6 45.8661 140.6ZM72.8614 123.8C73.3414 123.8 73.7814 123.84 74.2614 123.96V129.08C73.7814 129 73.3814 128.96 72.9014 128.96C68.8614 128.96 66.3414 131.76 66.3414 135.92V145H60.9814V124.2H66.3414V129.6C67.0614 126.4 69.1014 123.8 72.8614 123.8ZM77.3095 145V116.6H82.6695V145H77.3095ZM95.7627 145.4C90.9227 145.4 85.7627 141.8 85.7627 134.6C85.7627 127.4 90.9227 123.8 95.7627 123.8C99.4827 123.8 101.883 125.84 102.403 127H102.523V124.2H107.883V145H102.523V142.2H102.403C101.883 143.36 99.4827 145.4 95.7627 145.4ZM96.8427 140.6C99.8427 140.6 102.643 138.52 102.643 134.6C102.643 130.68 99.8427 128.6 96.8427 128.6C93.8427 128.6 91.0427 130.72 91.0427 134.6C91.0427 138.48 93.8427 140.6 96.8427 140.6ZM136.238 123.8C140.638 123.8 143.838 126.56 143.838 132.92V145H138.438V133.16C138.438 130.2 136.918 128.6 134.598 128.6C132.238 128.6 130.558 130.2 130.558 133.16V145H125.198V133.16C125.198 130.2 123.638 128.6 121.358 128.6C118.998 128.6 117.318 130.2 117.318 133.16V145H111.958V124.2H117.318V126.88C118.438 125.12 120.358 123.8 123.278 123.8C125.838 123.8 128.078 124.88 129.358 127.28C130.558 125.36 132.838 123.8 136.238 123.8ZM157.415 123.8C162.695 123.8 168.695 127.52 167.535 136.68H151.975C152.735 139.52 155.215 141 158.335 141C160.375 141 162.175 140.44 163.695 139.12L166.135 141.72C164.415 143.88 161.415 145.4 157.735 145.4C152.015 145.4 146.895 141.52 146.895 134.6C146.895 127.6 152.095 123.8 157.415 123.8ZM157.455 128.32C154.975 128.32 152.575 129.76 151.895 132.76H162.775C162.455 129.8 159.975 128.32 157.455 128.32ZM182.467 123.8C186.747 123.8 190.347 126.44 190.347 132.76V145H184.987V133.64C184.987 130.6 183.347 128.6 180.547 128.6C177.787 128.6 176.107 130.6 176.107 133.64V145H170.747V124.2H176.107V127.04C177.267 125.2 179.347 123.8 182.467 123.8ZM203.553 140.48C204.033 140.48 204.753 140.4 205.513 140.16V144.28C204.713 145 203.193 145.24 201.873 145.24C198.353 145.24 195.793 143.52 195.793 139.24V128.48H192.833V124.2H195.793V118.88H201.193V124.2H205.473V128.48H201.193V138.36C201.193 139.44 201.793 140.48 203.553 140.48ZM218.52 145.4C213.08 145.4 207.56 141.64 207.56 134.6C207.56 127.56 213.08 123.8 218.52 123.8C223.92 123.8 229.48 127.56 229.48 134.6C229.48 141.64 223.92 145.4 218.52 145.4ZM218.52 140.56C221.52 140.56 224.16 138.32 224.16 134.6C224.16 130.88 221.52 128.64 218.52 128.64C215.52 128.64 212.84 130.88 212.84 134.6C212.84 138.32 215.52 140.56 218.52 140.56ZM233.693 145.4C232.013 145.4 230.613 144.16 230.613 142.32C230.613 140.48 232.013 139.24 233.693 139.24C235.333 139.24 236.773 140.48 236.773 142.32C236.773 144.16 235.333 145.4 233.693 145.4ZM249.083 145.4C244.243 145.4 239.083 141.8 239.083 134.6C239.083 127.4 244.243 123.8 249.083 123.8C252.803 123.8 255.203 125.84 255.723 127H255.843V124.2H261.203V145H255.843V142.2H255.723C255.203 143.36 252.803 145.4 249.083 145.4ZM250.163 140.6C253.163 140.6 255.963 138.52 255.963 134.6C255.963 130.68 253.163 128.6 250.163 128.6C247.163 128.6 244.363 130.72 244.363 134.6C244.363 138.48 247.163 140.6 250.163 140.6ZM265.278 121.32V116.6H270.638V121.32H265.278ZM265.278 145V124.2H270.638V145H265.278Z" fill="black"/>
<path d="M129.353 91.1C133.253 91.1 137.093 93.89 137.093 99.2C137.093 104.51 133.253 107.3 129.353 107.3C126.413 107.3 124.013 105.68 123.113 103.67H123.023V107H121.193V85.7H123.023V94.73H123.113C124.013 92.72 126.413 91.1 129.353 91.1ZM129.113 105.62C132.173 105.62 135.233 103.52 135.233 99.2C135.233 94.88 132.173 92.78 129.113 92.78C126.053 92.78 122.963 94.91 122.963 99.2C122.963 103.49 126.053 105.62 129.113 105.62ZM150.947 91.4H152.867L146.207 107L143.687 112.7H141.887L144.467 106.88L137.867 91.4H139.787L145.367 104.66L150.947 91.4Z" fill="black" fill-opacity="0.65"/>
<rect x="77" y="4" width="119" height="64" rx="10" fill="#B9F8CF"/>
<rect x="78.75" y="5.75" width="115.5" height="60.5" rx="8.25" stroke="#0E542C" stroke-opacity="0.75" stroke-width="3.5"/>
<path d="M115.64 14.4H123.74V57H115.7V52.8H115.52C114.74 54.54 111.14 57.6 105.56 57.6C98.3 57.6 90.56 52.2 90.56 41.4C90.56 30.6 98.3 25.2 105.56 25.2C111.14 25.2 114.74 28.26 115.52 30H115.64V14.4ZM107.18 50.4C111.68 50.4 115.88 47.28 115.88 41.4C115.88 35.52 111.68 32.4 107.18 32.4C102.68 32.4 98.48 35.58 98.48 41.4C98.48 47.22 102.68 50.4 107.18 50.4ZM129.853 21.48V14.4H137.893V21.48H129.853ZM129.853 57V25.8H137.893V57H129.853ZM178.173 19.92C175.113 19.92 173.673 21.6 173.673 24.66V25.8H181.713V32.22H173.673V57H165.573V32.22H153.933V57H145.893V32.22H141.933V25.8H145.893V23.76C145.893 14.58 152.253 13.08 156.393 13.08C158.013 13.08 160.233 13.26 161.973 14.28V20.58C160.473 19.86 159.033 19.92 158.493 19.92C155.433 19.92 153.933 21.6 153.933 24.66V25.8H165.573V23.76C165.573 14.58 171.933 13.08 176.073 13.08C177.693 13.08 179.973 13.26 181.713 14.28V20.58C180.153 19.86 178.713 19.92 178.173 19.92Z" fill="#0E542C"/>
</svg>
